HIERARCHY
ROOT root
{
	OFFSET 0.000000 0.000000 0.000000
	CHANNELS 6 Xposition Yposition Zposition Zrotation Yrotation Xrotation
	JOINT lhip
	{
		OFFSET 0.058581 -0.082280 -0.017664
		CHANNELS 3 Zrotation Yrotation Xrotation
		JOINT lknee
		{
			OFFSET 0.043451 -0.386469 0.008037
			CHANNELS 3 Zrotation Yrotation Xrotation
			JOINT lankle
			{
				OFFSET -0.014790 -0.426874 -0.037428
				CHANNELS 3 Zrotation Yrotation Xrotation
				JOINT ltoe
				{
					OFFSET 0.041054 -0.060286 0.122042
					CHANNELS 3 Zrotation Yrotation Xrotation
					End Site
					{
						OFFSET 0.000000 0.000000 0.000000
					}
				}
			}
		}
	}
	JOINT rhip
	{
		OFFSET -0.060310 -0.090513 -0.013543
		CHANNELS 3 Zrotation Yrotation Xrotation
		JOINT rknee
		{
			OFFSET -0.043257 -0.383688 -0.004843
			CHANNELS 3 Zrotation Yrotation Xrotation
			JOINT rankle
			{
				OFFSET 0.019056 -0.420046 -0.034562
				CHANNELS 3 Zrotation Yrotation Xrotation
				JOINT rtoe
				{
					OFFSET -0.034840 -0.062106 0.130323
					CHANNELS 3 Zrotation Yrotation Xrotation
					End Site
					{
						OFFSET 0.000000 0.000000 0.000000
					}
				}
			}
		}
	}
	JOINT lowerback
	{
		OFFSET 0.004439 0.124404 -0.038385
		CHANNELS 3 Zrotation Yrotation Xrotation
		JOINT upperback
		{
			OFFSET 0.004488 0.137956 0.026820
			CHANNELS 3 Zrotation Yrotation Xrotation
			JOINT chest
			{
				OFFSET -0.002265 0.056032 0.002855
				CHANNELS 3 Zrotation Yrotation Xrotation
				JOINT lowerneck
				{
					OFFSET -0.013390 0.211636 -0.033468
					CHANNELS 3 Zrotation Yrotation Xrotation
					JOINT upperneck
					{
						OFFSET 0.010113 0.088937 0.050410
						CHANNELS 3 Zrotation Yrotation Xrotation
						End Site
						{
							OFFSET 0.000000 0.000000 0.000000
						}
					}
				}
				JOINT lclavicle
				{
					OFFSET 0.071702 0.114000 -0.018898
					CHANNELS 3 Zrotation Yrotation Xrotation
					JOINT lshoulder
					{
						OFFSET 0.122921 0.045205 -0.019046
						CHANNELS 3 Zrotation Yrotation Xrotation
						JOINT lelbow
						{
							OFFSET 0.255332 -0.015649 -0.022946
							CHANNELS 3 Zrotation Yrotation Xrotation
							JOINT lwrist
							{
								OFFSET 0.265709 0.012698 -0.007375
								CHANNELS 3 Zrotation Yrotation Xrotation
								End Site
								{
									OFFSET 0.000000 0.000000 0.000000
								}
							}
						}
					}
				}
				JOINT rclavicle
				{
					OFFSET -0.082954 0.112472 -0.023707
					CHANNELS 3 Zrotation Yrotation Xrotation
					JOINT rshoulder
					{
						OFFSET -0.113228 0.046853 -0.008472
						CHANNELS 3 Zrotation Yrotation Xrotation
						JOINT relbow
						{
							OFFSET -0.260127 -0.014369 -0.031269
							CHANNELS 3 Zrotation Yrotation Xrotation
							JOINT rwrist
							{
								OFFSET -0.269108 0.006794 -0.006027
								CHANNELS 3 Zrotation Yrotation Xrotation
								End Site
								{
									OFFSET 0.000000 0.000000 0.000000
								}
							}
						}
					}
				}
			}
		}
	}
}
MOTION
Frames: 16
Frame Time: 0.033333
1.358124 0.319902 0.991837 -87.062220 2.811866 93.330629 1.905666 -3.499882 10.894245 -7.148031 -3.110762 47.451111 -3.824691 20.158986 9.533663 0.000000 -0.000000 0.000000 -1.374318 2.424247 -31.897560 3.341744 -13.413333 15.721999 -0.136495 -11.478442 21.760989 0.000000 -0.000000 0.000000 1.515085 -12.017314 -7.307711 4.161903 -8.059713 11.322829 -2.029869 -5.233399 -0.363828 -7.015571 -0.375760 10.357186 1.457817 5.844949 -10.159769 -20.498830 8.130083 2.334191 -53.177318 -6.960984 21.314519 -125.192839 -68.003531 158.190936 21.193527 -20.366729 13.174045 10.233075 -20.780437 -0.456667 46.216966 -31.391824 4.848927 60.364114 71.701007 83.926700 -19.116604 16.637556 -0.203582 
1.278297 0.325679 0.966762 -89.209411 2.905882 91.228030 2.769427 -2.679373 7.973495 -7.531812 0.565328 60.773639 -2.406483 21.407227 5.484983 0.000000 -0.000000 0.000000 0.196973 3.849038 -31.381892 3.249329 -11.391867 31.248859 -4.160568 -12.112456 0.396245 0.000000 -0.000000 0.000000 0.923948 -9.871941 -4.949747 4.128259 -6.070389 10.699786 -1.951039 -4.283612 -0.648653 -6.172359 -0.754381 10.117625 1.557970 5.190226 -9.635718 -21.133331 11.009724 2.169124 -52.609746 -4.678725 21.220741 -114.918851 -69.956688 149.617861 20.613201 -18.976844 14.285218 13.041588 -20.080893 -1.230879 46.753153 -28.900114 6.477134 55.189838 71.805927 80.058682 -20.959044 16.562873 -1.599045 
1.206607 0.330806 0.942179 -92.206061 3.075480 88.208444 3.497588 -3.066198 3.683399 -8.367615 4.427322 73.533450 -0.550516 21.979768 1.311917 0.000000 -0.000000 0.000000 1.582380 4.743964 -30.211219 3.012808 -9.762320 44.516894 -5.298991 -13.150506 -9.589233 0.000000 -0.000000 0.000000 0.180441 -6.999299 -0.957794 4.210742 -3.615504 10.718160 -1.653816 -2.684286 -0.147396 -4.612052 -1.989341 7.509420 1.014072 3.116779 -8.765615 -23.232219 11.941741 1.133568 -52.054938 -2.281807 20.419481 -95.062391 -74.270310 130.254301 19.961893 -17.694293 16.823285 18.030968 -16.935005 -4.152405 47.142917 -25.622399 8.231911 47.779414 72.605523 72.336242 -22.671127 15.744659 -1.016663 
1.121142 0.333360 0.923698 -93.687518 2.548909 85.160694 4.028391 -6.008265 -5.733046 -9.021632 8.535196 85.578911 1.193608 22.881037 -4.771206 0.000000 -0.000000 0.000000 1.955525 4.940704 -23.013167 4.312499 -6.825327 50.409353 -5.731518 -14.540563 -19.648771 0.000000 -0.000000 0.000000 -0.616095 -2.947333 2.578910 3.936129 -2.787752 11.196521 -1.553129 -1.252310 -0.705614 -4.327463 -5.013955 7.995231 1.991574 3.329968 -7.908670 -24.176020 12.991653 2.466953 -52.498127 -0.360315 18.436109 -43.980904 -74.599516 79.522568 17.820066 -11.370221 20.829167 20.869476 -13.517817 -3.150585 50.157043 -15.095574 9.610811 38.198742 70.766609 64.389994 -23.248993 14.500880 1.360309 
1.071562 0.333824 0.920230 -94.510826 2.046962 84.362304 4.651306 -6.770476 -13.280765 -8.783064 9.543516 88.830333 2.265454 22.990728 -8.329052 0.000000 -0.000000 0.000000 2.293049 4.828147 -18.292479 4.011180 -5.864880 51.133606 -4.895656 -15.480314 -24.243635 0.000000 -0.000000 0.000000 -1.174179 -0.382694 3.320543 3.667762 -2.242700 10.580098 -1.443964 -0.204225 -0.920777 -4.130118 -6.453566 10.066009 2.836058 3.057470 -7.677439 -23.668582 13.114933 3.123365 -51.485022 2.291602 17.650607 -27.266423 -70.573421 62.467020 17.926332 -9.719611 18.652764 21.057358 -10.904309 -3.116131 51.811436 -11.358665 10.640643 39.753250 70.844543 66.836954 -24.752805 14.304103 0.051829 
1.004780 0.333982 0.922054 -95.785856 0.825357 83.287189 5.340085 -7.049628 -22.050802 -8.738362 9.883063 86.293751 3.672415 22.933189 -12.667291 0.000000 -0.000000 0.000000 2.417483 3.798990 -10.410229 3.371347 -3.125447 49.187486 -3.048948 -15.954876 -28.219923 0.000000 -0.000000 0.000000 -2.505122 3.328701 3.986920 2.997753 -1.573000 9.795578 -1.414838 1.222099 -1.183153 -3.018557 -8.153891 12.436470 4.414281 1.580121 -7.565372 -22.231352 14.016178 4.443541 -47.761062 5.741365 16.319826 -24.425865 -67.106864 60.505890 18.932693 -10.978430 16.085262 20.340291 -8.037376 -2.179015 54.205876 -7.202395 10.970474 45.089770 72.211468 73.289441 -26.565919 15.561927 -1.949692 
0.936805 0.333028 0.928266 -97.389289 -0.800676 82.021056 5.613611 -6.967198 -27.766113 -9.517906 9.215407 76.295650 5.243506 22.721275 -13.668711 0.000000 -0.000000 0.000000 1.470615 3.010048 -3.867280 2.780981 -0.368290 49.268293 -0.576578 -15.608528 -27.433123 0.000000 -0.000000 0.000000 -3.879518 6.814810 4.336685 2.016250 -0.411455 9.702412 -1.808412 2.666230 -1.247864 -0.901547 -9.480346 13.583673 5.796701 -0.358240 -7.774101 -20.098599 14.585339 5.349039 -42.235608 9.392090 16.107068 -29.167168 -65.770418 67.158743 19.650620 -12.544803 12.755456 19.239208 -6.062214 -1.554000 56.231288 -4.363719 11.246821 51.957031 73.976114 81.360357 -28.289098 15.198182 -4.046557 
0.867634 0.331068 0.936343 -98.419795 -1.567790 80.949902 6.301985 -7.206418 -29.893085 -10.298330 6.391499 59.811350 6.591140 22.244146 -11.189749 0.000000 -0.000000 0.000000 -0.218430 1.962292 1.032655 2.711944 0.900773 50.661484 2.167291 -13.526493 -22.340445 0.000000 -0.000000 0.000000 -4.452467 9.674989 3.747560 1.652447 0.802232 10.222474 -2.151043 3.849350 -1.468623 0.659360 -10.625612 15.338884 6.602460 -3.034229 -7.949852 -16.858484 13.945996 6.526917 -39.640293 12.792994 16.673126 -30.165544 -63.858545 69.086270 19.627469 -13.370934 8.889432 17.711233 -4.419360 -0.738888 57.634603 -3.303318 11.059236 54.862839 75.697618 84.631354 -28.828840 14.987597 -5.997083 
0.799527 0.327527 0.942084 -98.250666 -1.670605 81.586348 6.784269 -7.609060 -30.168926 -9.342821 0.767444 37.853532 6.513658 20.718434 -1.980271 0.000000 -0.000000 0.000000 -2.198514 0.419313 2.600173 3.034156 1.567946 53.639758 4.478248 -10.821809 -15.142844 0.000000 -0.000000 0.000000 -5.158231 11.342094 1.326008 1.795631 1.197622 11.918085 -2.165124 4.068340 -2.796803 0.650416 -11.286796 16.798143 7.198202 -4.281835 -8.232664 -14.928486 13.337369 7.371235 -37.957152 16.192869 17.221080 -29.153171 -62.078388 69.399794 18.250738 -12.581034 7.448402 17.026400 -3.632659 -0.079886 57.794012 -2.813471 11.322822 52.736229 76.494770 83.066076 -27.285635 15.419743 -6.456662 
0.711950 0.324019 0.939222 -97.804482 -1.328338 83.183165 7.006950 -7.908140 -28.488476 -6.706074 -7.566570 15.380173 9.390374 16.947133 18.183328 0.000000 -0.000000 0.000000 -3.005902 0.137262 4.509973 2.623397 2.561274 56.190903 5.365144 -8.324266 -7.702836 0.000000 -0.000000 0.000000 -6.708662 12.024062 -4.030524 2.186049 1.466000 16.137350 -1.605325 3.716421 -5.673223 0.564125 -10.885782 18.007818 7.265836 -6.111570 -7.669757 -13.624905 11.470870 8.857506 -38.376724 20.549090 16.428237 -24.479628 -59.684988 66.509752 15.989953 -12.698693 8.083881 17.803029 -2.828801 1.256717 58.105484 -3.045302 10.978043 39.552572 76.017562 70.748045 -24.508398 16.076733 -5.450081 
0.638104 0.317952 0.922765 -97.211070 -0.930221 83.946098 5.889714 -6.408042 -30.285068 -5.865778 -5.411245 16.462208 12.162862 14.228783 16.198800 0.000000 -0.000000 0.000000 -2.843633 1.448627 6.008121 1.498485 2.121854 59.678836 6.117773 -7.797060 -1.074858 0.000000 -0.000000 0.000000 -7.406457 11.020317 -6.956707 3.081916 0.885952 16.968655 -1.577190 3.757710 -6.448679 -0.406875 -10.622599 20.263532 7.151030 -5.008000 -8.612436 -13.876437 9.978570 10.484161 -40.546995 22.756933 15.468595 -19.073215 -57.126749 62.388182 15.453985 -11.082247 8.417322 18.168556 -2.491984 3.186045 58.498660 -3.134332 10.125814 29.248638 73.951022 61.572340 -23.263978 15.187325 -4.949404 
0.567883 0.311752 0.896562 -96.673889 -0.533702 81.892965 5.058960 -6.841532 -30.088455 -8.975480 -1.788433 28.368287 13.120735 17.109822 2.870144 0.000000 -0.000000 0.000000 -3.155069 1.539711 7.270736 0.676507 1.242831 67.198271 5.275237 -10.237646 4.983338 0.000000 -0.000000 0.000000 -6.251316 9.989555 -4.142212 3.246100 0.152512 13.500357 -1.918568 3.722829 -4.084361 -0.752074 -11.049016 19.171417 5.892044 -2.991550 -8.509842 -16.462467 8.931351 9.513823 -41.235789 23.827583 15.768473 -13.933208 -55.139547 57.042057 15.852456 -9.310820 7.964562 19.445973 -2.149076 1.375975 57.946008 -5.043680 10.143983 22.873771 70.651164 55.117328 -23.448772 12.558470 -5.068925 
0.511429 0.308354 0.873309 -95.042659 -1.180695 79.118255 3.429963 -7.190045 -31.082242 -11.691105 0.510414 41.715307 14.496083 19.008537 -6.390346 0.000000 -0.000000 0.000000 -4.816461 0.244882 4.121227 -0.243549 0.340450 78.703567 2.397709 -13.968898 3.614927 0.000000 -0.000000 0.000000 -5.837025 8.960581 0.423434 2.622856 -0.504296 11.844930 -2.130732 3.301282 -2.346816 0.526107 -11.522611 14.547809 3.934223 -1.963690 -4.563117 -19.111211 7.654662 6.535371 -42.975356 20.292741 16.286120 -7.321452 -50.158859 50.190159 15.846538 -8.114146 11.364830 22.151953 -2.294465 -0.300283 57.330131 -4.953486 10.781886 10.894564 65.810567 43.053894 -23.723227 10.873076 -1.965406 
0.461100 0.303940 0.862380 -96.878971 -3.297045 76.653315 2.209663 -6.940399 -28.236223 -14.169313 4.263275 47.832239 14.624388 21.569992 -12.721649 0.000000 -0.000000 0.000000 -6.904223 1.935485 -3.135975 -1.203544 -0.043508 90.315231 0.438381 -17.222617 -1.741435 0.000000 -0.000000 0.000000 -6.417815 8.713475 2.803277 2.178902 0.705850 12.921566 -2.616470 3.229937 -3.003854 0.517315 -10.668935 15.111951 2.965640 -1.186510 -4.263691 -20.041585 7.371332 5.809487 -47.738824 15.424883 15.807110 0.264158 -47.747007 42.411094 15.589620 -5.680296 14.345230 22.635208 -2.324175 -0.183562 58.945958 -4.882548 11.865487 1.878290 59.493043 34.235093 -23.905421 8.307809 -1.211744 
0.416339 0.298107 0.856326 -99.008010 -3.169738 75.125955 1.314888 -5.178249 -25.680122 -13.858680 5.354802 52.814536 13.976008 23.338158 -18.070581 0.000000 -0.000000 0.000000 -5.606220 3.045388 -11.764287 -1.934474 -0.811893 98.444338 0.107082 -18.032009 -8.939884 0.000000 -0.000000 0.000000 -4.412081 6.799093 4.372877 1.686132 1.552918 11.953901 -2.955758 3.204811 -2.361815 -1.006246 -9.453241 17.126071 2.829810 0.345811 -5.238370 -21.640978 6.770431 4.855334 -51.655582 14.046663 14.726372 4.268878 -49.865024 34.347375 16.018955 -4.518507 15.030374 22.127647 -1.733314 -0.058522 58.940620 -5.921031 11.855935 -0.277338 55.269903 31.701809 -21.990365 7.479410 -3.569163 
0.375407 0.294001 0.854072 -97.530007 -2.005869 73.766873 -0.167454 -5.858679 -22.586515 -13.502714 4.051353 55.858736 13.329621 25.437844 -22.895557 0.000000 -0.000000 0.000000 -4.116343 2.841771 -17.641132 -1.059925 -4.308525 100.501930 0.704300 -16.876639 -15.119272 0.000000 -0.000000 0.000000 -3.160541 3.841755 5.412241 1.955093 0.345880 11.839999 -2.658324 2.683067 -2.377075 -3.044383 -8.909787 17.671441 2.977357 2.518154 -4.950003 -23.568534 6.033068 4.301535 -52.883207 11.797795 15.208970 4.156233 -52.087790 33.476754 16.124885 -4.710220 18.314909 21.906735 -1.559215 0.082034 57.401738 -7.395937 11.559059 -0.761070 52.925293 30.615564 -20.075615 8.403348 -3.723650 
